<svg xmlns="http://www.w3.org/2000/svg" width="242.771" height="57.736" viewBox="0 0 242.771 57.736">
  <path id="Intersection_4" data-name="Intersection 4" d="M45.947,214c21.2-8.728,67.36-23.62,125.809-18.254,57.363,3.722,36.041-20.283,68.528-36.376,12.531-6.465,36.569-3.324,43.717,14.024V195a19,19,0,0,1-19,19Z" transform="translate(-41.229 -156.264)" fill="#ffde84"/>
  <g id="rip" transform="translate(171.77 9.641)">
    <g id="Group_19" data-name="Group 19" transform="translate(26.001)">
      <path id="Path_20" data-name="Path 20" d="M57.044,31.93V14.043A14.025,14.025,0,0,0,35.533,2.165a.739.739,0,0,0,.79,1.25A12.547,12.547,0,0,1,55.566,14.043V31.93H30.436V14.043a12.478,12.478,0,0,1,1.936-6.678.739.739,0,0,0-1.249-.79,13.955,13.955,0,0,0-2.165,7.468V31.93A2.96,2.96,0,0,0,26,34.887V37.1a.739.739,0,0,0,.739.739H59.262A.739.739,0,0,0,60,37.1V34.887A2.96,2.96,0,0,0,57.044,31.93Zm1.478,4.435H27.479V34.887a1.48,1.48,0,0,1,1.478-1.478H57.044a1.48,1.48,0,0,1,1.478,1.478Z" transform="translate(-26.001)" fill="#fff"/>
      <path id="Path_21" data-name="Path 21" d="M166,352.74V355.7a.739.739,0,0,0,.739.739h11.826a.739.739,0,0,0,.739-.739V352.74a.739.739,0,0,0-.739-.739H166.74A.739.739,0,0,0,166,352.74Zm1.478.739h10.348v1.478H167.479Z" transform="translate(-155.653 -325.984)" fill="#fff"/>
      <path id="Path_22" data-name="Path 22" d="M236.005,312.739a.739.739,0,0,0,.739.739h4.434a.739.739,0,1,0,0-1.478h-4.434A.739.739,0,0,0,236.005,312.739Z" transform="translate(-220.483 -288.939)" fill="#fff"/>
      <path id="Path_23" data-name="Path 23" d="M197.484,312.739a.739.739,0,0,0-.739-.739h0a.739.739,0,1,0,.74.739Z" transform="translate(-183.439 -288.939)" fill="#fff"/>
      <path id="Path_24" data-name="Path 24" d="M119.46,54.2a.739.739,0,1,0-.522-1.262h0a.739.739,0,0,0,.523,1.262Z" transform="translate(-111.868 -48.821)" fill="#fff"/>
      <path id="Path_25" data-name="Path 25" d="M161.126,155.436a2.566,2.566,0,0,0-2.563-2.563h-1.824a.739.739,0,0,0-.739.739v6.144a.739.739,0,1,0,1.478,0V158h.658l1.228,2.126a.739.739,0,0,0,1.28-.739l-.953-1.65A2.566,2.566,0,0,0,161.126,155.436Zm-3.648-1.085h1.085a1.085,1.085,0,0,1,0,2.17h-1.085Z" transform="translate(-146.391 -141.574)" fill="#fff"/>
      <path id="Path_26" data-name="Path 26" d="M246.741,160.5a.739.739,0,0,0,.739-.739v-6.144a.739.739,0,0,0-1.478,0v6.144A.739.739,0,0,0,246.741,160.5Z" transform="translate(-229.741 -141.574)" fill="#fff"/>
      <path id="Path_27" data-name="Path 27" d="M289.209,152.873h-1.824a.739.739,0,0,0-.739.739v6.144a.739.739,0,0,0,1.478,0V158h1.085a2.563,2.563,0,1,0,0-5.126Zm0,3.648h-1.085v-2.17h1.085a1.085,1.085,0,1,1,0,2.17Z" transform="translate(-267.381 -141.574)" fill="#fff"/>
      <path id="Path_28" data-name="Path 28" d="M336.737,236a.739.739,0,1,0,.74.739.739.739,0,0,0-.74-.739Z" transform="translate(-313.085 -218.554)" fill="#fff"/>
    </g>
  </g>
  <path id="Intersection_8" data-name="Intersection 8" d="M41.229,214c19.063-13.145,69.332-42.96,117.1-29.884,52.054,14.249,105.952,15.035,125.674-4.28V195a19,19,0,0,1-19,19Z" transform="translate(-41.229 -156.264)" fill="rgba(255,222,132,0.2)"/>
</svg>
