<svg xmlns="http://www.w3.org/2000/svg" width="242.772" height="57.736" viewBox="0 0 242.772 57.736">
  <path id="Intersection_1" data-name="Intersection 1" d="M41.229,214c19.063-13.145,69.332-42.96,117.1-29.884,52.054,14.249,105.952,15.035,125.674-4.28V195a19,19,0,0,1-19,19Z" transform="translate(-41.229 -156.264)" fill="rgba(220,226,248,0.2)"/>
  <path id="Intersection_6" data-name="Intersection 6" d="M45.947,214c21.2-8.728,67.36-23.62,125.809-18.254,57.363,3.722,36.041-20.283,68.528-36.376,12.531-6.465,36.569-3.324,43.717,14.024V195a19,19,0,0,1-19,19Z" transform="translate(-41.229 -156.264)" fill="#a1a1c8"/>
  <g id="virus" transform="translate(199.236 10.915)">
    <path id="Path_1" data-name="Path 1" d="M54.262,18.2a3.069,3.069,0,0,0-1.083-2.141,2.807,2.807,0,0,0-2.1-.651,3,3,0,0,0-2.4,1.757l-.941.083-.929-.26a.233.233,0,0,1-.156-.153,8.719,8.719,0,0,0-1.146-2.256l.329-.884,1.038-1.122a2.11,2.11,0,0,0,1.533-.734,2.145,2.145,0,0,0-.067-2.864,2.108,2.108,0,0,0-1.559-.661A2.138,2.138,0,0,0,45.239,9a2.117,2.117,0,0,0-.564,1.536l-1.038,1.123-.87.4a8.723,8.723,0,0,0-4.276-1.19l-.569-.907-.2-1A2.7,2.7,0,0,0,38.681,6.3a2.983,2.983,0,0,0-5.346-.934,2.662,2.662,0,0,0-.394,2.044,2.813,2.813,0,0,0,1.817,2.045l.222,1.1L34.8,11.627A8.73,8.73,0,0,0,32.6,13.045l-.652-.116-.736-.556a2.13,2.13,0,1,0-1.689,2.487l.617.466.277.566a.092.092,0,0,1,0,.079,8.657,8.657,0,0,0-.8,3.643c0,.235.01.474.029.71a.1.1,0,0,1-.039.089l-1.042.743-1.19.374a2.789,2.789,0,0,0-2.585-.442l-.053.019-.015.005a.471.471,0,0,0,.319.887l.022-.008.022-.008a1.848,1.848,0,0,1,1.857.417.471.471,0,0,0,.466.108l1.51-.475a.471.471,0,0,0,.132-.066l1.1-.786a1.045,1.045,0,0,0,.431-.933c-.017-.211-.026-.424-.026-.633a7.72,7.72,0,0,1,.709-3.249,1.031,1.031,0,0,0-.01-.887l-.326-.668a.471.471,0,0,0-.14-.169l-.887-.669a.471.471,0,0,0-.428-.073,1.19,1.19,0,0,1-1.078-.182,1.187,1.187,0,0,1-.185-1.723,1.2,1.2,0,0,1,1.559-.213,1.185,1.185,0,0,1,.523.889.471.471,0,0,0,.186.337l.983.741a.471.471,0,0,0,.2.088l.99.176a.471.471,0,0,0,.4-.119,7.8,7.8,0,0,1,2.343-1.5.471.471,0,0,0,.286-.359l.232-1.413a.472.472,0,0,0,0-.169l-.294-1.459a.471.471,0,0,0-.344-.363,1.9,1.9,0,0,1-1.42-1.419,1.727,1.727,0,0,1,.258-1.326,2.041,2.041,0,0,1,3.639.609,1.786,1.786,0,0,1-.814,1.872.471.471,0,0,0-.206.489l.277,1.376a.472.472,0,0,0,.063.157l.681,1.086a.711.711,0,0,0,.606.335h0a7.778,7.778,0,0,1,4.02,1.118.711.711,0,0,0,.667.037l1.066-.494a.472.472,0,0,0,.148-.108l1.244-1.346a.471.471,0,0,0,.12-.392,1.187,1.187,0,0,1,2.033-1,1.194,1.194,0,0,1,.037,1.6,1.179,1.179,0,0,1-.988.406.471.471,0,0,0-.381.15l-1.244,1.346a.47.47,0,0,0-.1.156l-.4,1.088a.71.71,0,0,0,.093.666,7.783,7.783,0,0,1,1.087,2.1,1.175,1.175,0,0,0,.795.76l1.012.284a.471.471,0,0,0,.169.016l1.314-.116a.471.471,0,0,0,.4-.315,2.078,2.078,0,0,1,1.718-1.418,1.872,1.872,0,0,1,1.4.436,2.134,2.134,0,0,1,.748,1.491,2.3,2.3,0,0,1-.206,1.143.471.471,0,1,0,.855.4,3.245,3.245,0,0,0,.291-1.613Z" transform="translate(-22.883)" fill="#fff"/>
    <path id="Path_2" data-name="Path 2" d="M29.008,246.176a1.911,1.911,0,0,1-.406.086,1.931,1.931,0,0,1-1.943-1.151.471.471,0,0,0-.468-.27l-1.234.109a.471.471,0,0,0-.163.045l-.931.449a1.174,1.174,0,0,0-.651.9,7.748,7.748,0,0,1-.442,1.71,1.171,1.171,0,0,0,.069,1l.332.593a.471.471,0,0,0,.149.161l.923.619a.471.471,0,0,0,.431.049,1.19,1.19,0,0,1,1.087.122,1.187,1.187,0,0,1,.28,1.71,1.2,1.2,0,0,1-1.545.3,1.185,1.185,0,0,1-.572-.858.471.471,0,0,0-.2-.326l-1.022-.686a.471.471,0,0,0-.206-.076l-.643-.078a1.211,1.211,0,0,0-.984.329,7.846,7.846,0,0,1-1.72,1.243,1.211,1.211,0,0,0-.632.988l-.082,1.3a.471.471,0,0,0,.013.145l.4,1.605a.471.471,0,0,0,.33.339,1.6,1.6,0,0,1,1.115,1.143,1.59,1.59,0,0,1-1.2,1.94,1.589,1.589,0,0,1-1.456-2.687.471.471,0,0,0,.127-.451l-.407-1.615a.471.471,0,0,0-.057-.134l-.627-1.009a1.386,1.386,0,0,0-1.19-.653h0a7.831,7.831,0,0,1-1.517-.148,1.384,1.384,0,0,0-1.281.4l-.83.876a.473.473,0,0,0-.083.12l-.929,1.927a.471.471,0,0,0,0,.413A1.187,1.187,0,0,1,9.2,258.211a1.2,1.2,0,0,1-.515-1.481,1.177,1.177,0,0,1,.832-.709.472.472,0,0,0,.318-.254l.935-1.939a.471.471,0,0,0,.042-.139l.183-1.3a1.168,1.168,0,0,0-.416-1.066A7.844,7.844,0,0,1,8.8,249.29a1.17,1.17,0,0,0-.984-.557l-1.3-.012a.466.466,0,0,0-.146.022l-1.423.448a.471.471,0,0,0-.327.4,1.849,1.849,0,0,1-3.594.369,1.824,1.824,0,0,1,.012-1.169.471.471,0,1,0-.891-.307,2.76,2.76,0,0,0-.016,1.768,2.8,2.8,0,0,0,2.66,1.923,2.765,2.765,0,0,0,.831-.128A2.8,2.8,0,0,0,5.507,250l1.077-.339,1.225.012a.221.221,0,0,1,.187.1,8.783,8.783,0,0,0,1.985,2.275.221.221,0,0,1,.077.2l-.173,1.229-.812,1.685a2.129,2.129,0,0,0-.339,3.863,2.112,2.112,0,0,0,1.686.177A2.138,2.138,0,0,0,11.7,258.1a2.115,2.115,0,0,0,.086-1.645l.8-1.669.779-.822a.446.446,0,0,1,.414-.128,8.787,8.787,0,0,0,1.7.166h0a.448.448,0,0,1,.385.208l.589.947.327,1.3a2.521,2.521,0,0,0-.445,2.39,2.554,2.554,0,0,0,2.417,1.743,2.48,2.48,0,0,0,.539-.059,2.532,2.532,0,0,0,1.906-3.091,2.54,2.54,0,0,0-1.507-1.729l-.324-1.287.077-1.23a.263.263,0,0,1,.135-.215,8.793,8.793,0,0,0,1.927-1.392.272.272,0,0,1,.22-.076l.531.065.766.514a2.13,2.13,0,1,0,1.549-2.577l-.642-.431-.277-.495a.231.231,0,0,1-.012-.2,8.692,8.692,0,0,0,.5-1.918.234.234,0,0,1,.127-.181l.854-.412.838-.074a2.836,2.836,0,0,0,3.338,1.264.471.471,0,0,0-.295-.9Z" transform="translate(0 -225.643)" fill="#fff"/>
    <path id="Path_3" data-name="Path 3" d="M149.545,146.652a6.6,6.6,0,1,0,2.011.845.471.471,0,1,0-.5.8,5.633,5.633,0,1,1-1.722-.724.471.471,0,1,0,.215-.918Z" transform="translate(-132.548 -133.462)" fill="#fff"/>
    <path id="Path_4" data-name="Path 4" d="M49.31,15.594a2.216,2.216,0,1,0-2.216-2.216A2.219,2.219,0,0,0,49.31,15.594Zm0-3.49a1.274,1.274,0,1,1-1.274,1.274A1.275,1.275,0,0,1,49.31,12.1Z" transform="translate(-44.139 -6.649)" fill="#fff"/>
    <path id="Path_5" data-name="Path 5" d="M50.554,386.653a1.624,1.624,0,1,0,1.624,1.624A1.626,1.626,0,0,0,50.554,386.653Zm0,2.305a.681.681,0,1,1,.681-.681A.682.682,0,0,1,50.554,388.958Z" transform="translate(-45.859 -358.545)" fill="#fff"/>
    <path id="Path_6" data-name="Path 6" d="M379.214,408.111a2.169,2.169,0,1,0,2.169,2.169A2.172,2.172,0,0,0,379.214,408.111Zm0,3.4a1.227,1.227,0,1,1,1.227-1.227A1.228,1.228,0,0,1,379.214,411.507Z" transform="translate(-353.355 -378.655)" fill="#fff"/>
    <path id="Path_7" data-name="Path 7" d="M187.933,193.966a2.054,2.054,0,1,0-2.054,2.054A2.057,2.057,0,0,0,187.933,193.966Zm-2.054,1.112a1.112,1.112,0,1,1,1.112-1.112A1.113,1.113,0,0,1,185.879,195.078Z" transform="translate(-172.278 -176.042)" fill="#fff"/>
    <path id="Path_8" data-name="Path 8" d="M213.639,281.29a1.549,1.549,0,1,0-1.549-1.549A1.55,1.55,0,0,0,213.639,281.29Zm0-2.155a.606.606,0,1,1-.606.606A.607.607,0,0,1,213.639,279.136Z" transform="translate(-198.766 -256.901)" fill="#fff"/>
    <path id="Path_9" data-name="Path 9" d="M268.673,230.973a1.376,1.376,0,1,0,1.376-1.376A1.377,1.377,0,0,0,268.673,230.973Zm1.376-.433a.433.433,0,1,1-.433.433A.434.434,0,0,1,270.049,230.54Z" transform="translate(-251.794 -211.359)" fill="#fff"/>
  </g>
</svg>
