<?xml version="1.0" standalone="no"?>
<svg
  width="600"
  height="600"
  viewBox="0 0 600 600"
  xmlns="http://www.w3.org/2000/svg"
>
  <g transform="translate(300,300)">
    <path d="M152.4,-182.6C185.2,-154.1,191.1,-94.4,194.3,-39.7C197.4,15,197.9,64.8,177.5,104.7C157.1,144.6,115.8,174.7,68.9,193.9C21.9,213,-30.8,221.1,-85.8,211.6C-140.8,202,-198.1,174.8,-222.3,129.8C-246.5,84.9,-237.5,22.3,-221.5,-33.9C-205.5,-90.2,-182.4,-140.1,-144.4,-167.7C-106.3,-195.3,-53.1,-200.7,3.3,-204.6C59.8,-208.6,119.6,-211.2,152.4,-182.6Z" fill="#7a8ff1" />
  </g>
</svg>
  