<svg xmlns="http://www.w3.org/2000/svg" width="242.772" height="57.736" viewBox="0 0 242.772 57.736">
  <path id="Intersection_7" data-name="Intersection 7" d="M41.229,214c19.063-13.145,69.332-42.96,117.1-29.884,52.054,14.249,105.952,15.035,125.674-4.28V195a19,19,0,0,1-19,19Z" transform="translate(-41.229 -156.264)" fill="rgba(255,133,115,0.2)"/>
  <path id="Intersection_5" data-name="Intersection 5" d="M45.947,214c21.2-8.728,67.36-23.62,125.809-18.254,57.363,3.722,36.041-20.283,68.528-36.376,12.531-6.465,36.569-3.324,43.717,14.024V195a19,19,0,0,1-19,19Z" transform="translate(-41.229 -156.264)" fill="#ff8573"/>
  <g id="recovery" transform="translate(193.251 13.987)">
    <path id="Path_35" data-name="Path 35" d="M128.463,125.027a4.174,4.174,0,0,0,0,5.892l.726.726-.726.727a4.165,4.165,0,0,0,5.889,5.892h0l.726-.726.725.727a4.165,4.165,0,1,0,5.889-5.892l-.726-.725.727-.727a4.165,4.165,0,0,0-5.89-5.891l-.725.726-.726-.726a4.17,4.17,0,0,0-5.889,0Zm5.879,3.313,4.043,4.036-1.256,1.257,0,0-1.317,1.316-4.04-4.039Zm-.915,9a2.857,2.857,0,1,1-4.039-4.041l1.188-1.188h0l.27-.27,4.04,4.039-.271.27-.018.02Zm7.34-4.041a2.857,2.857,0,0,1-4.038,4.042l-.726-.727.271-.271h0l1.737-1.738.042-.042h0l1.987-1.988Zm-4.038-7.343a2.857,2.857,0,1,1,4.039,4.041l-1.171,1.172-.019.017-.267.267-4.043-4.036.273-.273h0Zm-3.3,0,.726.726-.274.274h0l-3.765,3.767-.725-.726a2.857,2.857,0,1,1,4.038-4.042Z" transform="translate(-115.65 -115.709)" fill="#fff"/>
    <path id="Path_36" data-name="Path 36" d="M33.7,23.01a15.926,15.926,0,1,0-14.275,8.862,15.752,15.752,0,0,0,6.527-1.4A5.609,5.609,0,1,0,33.7,23.01ZM19.428,30.563A14.62,14.62,0,1,1,32.5,22.5,5.59,5.59,0,0,0,31,22.275,13.205,13.205,0,0,0,22.513,3.1a.654.654,0,0,0-.3,1.273,11.9,11.9,0,0,1,7.127,18.133,5.633,5.633,0,0,0-3.717,3.582A11.891,11.891,0,1,1,16.641,4.373.654.654,0,0,0,16.335,3.1,13.256,13.256,0,0,0,9.112,7.706a13.063,13.063,0,0,0-2.878,8.23,13.2,13.2,0,0,0,19.09,11.809c0,.047,0,.093,0,.139a5.609,5.609,0,0,0,.168,1.364,14.458,14.458,0,0,1-6.061,1.314Zm11.5,1.626a4.3,4.3,0,1,1,4.3-4.3A4.308,4.308,0,0,1,30.929,32.19Z" transform="translate(0 0)" fill="#fff"/>
    <path id="Path_37" data-name="Path 37" d="M386.707,387.485H385.35v-1.356a.654.654,0,0,0-1.309,0v1.356h-1.355a.654.654,0,1,0,0,1.309h1.355v1.358a.654.654,0,1,0,1.309,0v-1.358h1.357a.654.654,0,1,0,0-1.309Z" transform="translate(-353.766 -360.255)" fill="#fff"/>
    <path id="Path_38" data-name="Path 38" d="M237.547,43.12h0a.654.654,0,1,0-.658-.654A.653.653,0,0,0,237.551,43.12Z" transform="translate(-218.123 -39.075)" fill="#fff"/>
  </g>
</svg>
