<!-- <svg xmlns="http://www.w3.org/2000/svg" xmlns:xlink="http://www.w3.org/1999/xlink">
    <path fill-rule="evenodd" opacity="0.2" fill="rgb(122, 143, 241)" d="M1921.000,101.001 C1574.679,45.678 1391.735,111.325 1087.000,196.001 C805.691,274.167 689.409,339.231 509.000,344.000 C328.591,348.770 107.573,255.304 0.000,189.000 L0.000,459.000 L1923.000,459.000 C1923.000,459.000 1919.458,196.089 1921.000,101.001 Z"></path>
    <path fill-rule="evenodd" opacity="0.2" fill="rgb(122, 143, 241)" d="M1921.000,61.000 C1574.679,5.678 1391.735,71.324 1087.000,156.000 C805.691,234.166 689.409,299.232 509.000,304.000 C328.591,308.770 107.573,255.304 0.000,189.000 L0.000,419.000 L1923.000,419.000 C1923.000,419.000 1919.458,156.088 1921.000,61.000 Z"></path>
    <path fill-rule="evenodd" opacity="0.2" fill="rgb(122, 143, 241)" d="M1921.000,21.000 C1574.679,-34.321 1391.735,31.325 1087.000,116.000 C805.691,194.167 689.409,259.231 509.000,264.000 C328.591,268.769 107.573,255.304 0.000,189.000 L0.000,379.000 L1923.000,379.000 C1923.000,379.000 1919.458,116.088 1921.000,21.000 Z"></path>
    <path fill-rule="evenodd" fill="rgb(122, 143, 241)" d="M1921.000,230.999 C1574.679,175.677 1391.735,171.324 1087.000,256.000 C805.691,334.167 689.409,339.231 509.000,344.000 C328.591,348.770 107.573,255.304 0.000,189.000 L0.000,459.000 L1923.000,459.000 C1923.000,459.000 1919.458,326.088 1921.000,230.999 Z"></path>
</svg> -->

<svg xmlns="http://www.w3.org/2000/svg" viewBox="0 0 1440 320">
  <path fill="#0099ff" fill-opacity="1" d="M0,128L48,117.3C96,107,192,85,288,96C384,107,480,149,576,149.3C672,149,768,107,864,90.7C960,75,1056,85,1152,85.3C1248,85,1344,75,1392,69.3L1440,64L1440,320L1392,320C1344,320,1248,320,1152,320C1056,320,960,320,864,320C768,320,672,320,576,320C480,320,384,320,288,320C192,320,96,320,48,320L0,320Z"></path>
</svg>